<svg width="59" height="56" viewBox="0 0 59 56" fill="none" xmlns="http://www.w3.org/2000/svg">
<path d="M22.0482 53.2933C23.3709 53.2933 24.4432 52.221 24.4432 50.8984C24.4432 49.5757 23.3709 48.5034 22.0482 48.5034C20.7256 48.5034 19.6533 49.5757 19.6533 50.8984C19.6533 52.221 20.7256 53.2933 22.0482 53.2933Z" stroke="#E9D8A6" stroke-width="5" stroke-linecap="round" stroke-linejoin="round"/>
<path d="M48.3924 53.2933C49.715 53.2933 50.7873 52.221 50.7873 50.8984C50.7873 49.5757 49.715 48.5034 48.3924 48.5034C47.0697 48.5034 45.9974 49.5757 45.9974 50.8984C45.9974 52.221 47.0697 53.2933 48.3924 53.2933Z" fill="#E9D8A6" stroke="#E9D8A6" stroke-width="5" stroke-linecap="round" stroke-linejoin="round"/>
<path d="M2.88892 3H12.4686L18.887 35.068C19.106 36.1706 19.7058 37.161 20.5815 37.8659C21.4572 38.5709 22.5529 38.9453 23.6768 38.9238H46.9554C48.0794 38.9453 49.1751 38.5709 50.0507 37.8659C50.9264 37.161 51.5263 36.1706 51.7453 35.068L55.5771 14.9746H14.8635" stroke="#E9D8A6" stroke-width="5" stroke-linecap="round" stroke-linejoin="round"/>
</svg>
