<svg width="47" height="52" viewBox="0 0 47 52" fill="none" xmlns="http://www.w3.org/2000/svg">
<rect width="47" height="52" fill="#2A2A2A"/>
<g clip-path="url(#clip0_0_1)">
<rect width="1440" height="6601" transform="translate(-1234 -44)" fill="#E9D8A6"/>
<g filter="url(#filter0_d_0_1)">
<rect x="-1234" y="-44" width="1440" height="143.884" fill="#AE2012"/>
</g>
<path d="M43.8889 49V43.8889C43.8889 41.1778 42.8119 38.5777 40.8949 36.6607C38.9778 34.7436 36.3778 33.6667 33.6667 33.6667H13.2222C10.5111 33.6667 7.91106 34.7436 5.99402 36.6607C4.07698 38.5777 3 41.1778 3 43.8889V49" stroke="#E9D8A6" stroke-width="5" stroke-linecap="round" stroke-linejoin="round"/>
<path d="M23.4445 23.4444C29.09 23.4444 33.6667 18.8678 33.6667 13.2222C33.6667 7.57664 29.09 3 23.4445 3C17.7989 3 13.2222 7.57664 13.2222 13.2222C13.2222 18.8678 17.7989 23.4444 23.4445 23.4444Z" stroke="#E9D8A6" stroke-width="5" stroke-linecap="round" stroke-linejoin="round"/>
</g>
<defs>
<filter id="filter0_d_0_1" x="-1234" y="-44" width="1440" height="154.884" filterUnits="userSpaceOnUse" color-interpolation-filters="sRGB">
<feFlood flood-opacity="0" result="BackgroundImageFix"/>
<feColorMatrix in="SourceAlpha" type="matrix" values="0 0 0 0 0 0 0 0 0 0 0 0 0 0 0 0 0 0 127 0" result="hardAlpha"/>
<feOffset dy="11"/>
<feComposite in2="hardAlpha" operator="out"/>
<feColorMatrix type="matrix" values="0 0 0 0 0.00119909 0 0 0 0 0.126956 0 0 0 0 0.172685 0 0 0 1 0"/>
<feBlend mode="normal" in2="BackgroundImageFix" result="effect1_dropShadow_0_1"/>
<feBlend mode="normal" in="SourceGraphic" in2="effect1_dropShadow_0_1" result="shape"/>
</filter>
<clipPath id="clip0_0_1">
<rect width="1440" height="6601" fill="white" transform="translate(-1234 -44)"/>
</clipPath>
</defs>
</svg>
